<svg width="30" height="33" viewBox="0 0 30 33" fill="none" xmlns="http://www.w3.org/2000/svg">
<path fill-rule="evenodd" clip-rule="evenodd" d="M25.6602 28.2634C24.3397 29.3958 21.9789 29.4323 18.9413 28.0848C15.9647 26.7644 12.6096 24.2163 9.61983 20.7299C6.63007 17.2435 4.62333 13.5391 3.77222 10.396C2.90367 7.18841 3.2997 4.86082 4.62019 3.72843C5.91723 2.61615 7.88666 2.84348 8.89619 4.22201L10.8241 6.85468C11.6522 7.98546 11.4701 9.56316 10.4062 10.4755C10.087 10.7492 9.76553 11.1138 9.56027 11.6075C9.35247 12.1072 9.28671 12.6844 9.39718 13.3439C9.61118 14.6215 10.4911 16.2378 12.3417 18.3958C14.1922 20.5537 15.6555 21.6698 16.8855 22.0761C17.5205 22.2859 18.1009 22.3089 18.6265 22.1797C19.1457 22.0521 19.555 21.79 19.8742 21.5163C20.9381 20.6039 22.5251 20.6645 23.5164 21.6553L25.8244 23.9621C27.0328 25.17 26.9572 27.1511 25.6602 28.2634ZM3.56819 2.50169C1.50111 4.27432 1.30301 7.4602 2.21235 10.8184C3.13913 14.2409 5.28231 18.1544 8.39309 21.7819C11.5039 25.4094 15.0448 28.1242 18.286 29.562C21.4663 30.9728 24.6451 31.2628 26.7122 29.4901C28.7238 27.765 28.8411 24.6925 26.9668 22.8191L24.6589 20.5123C23.0703 18.9245 20.5272 18.8274 18.8222 20.2895C18.6332 20.4516 18.4455 20.5601 18.2408 20.6104C18.0426 20.6591 17.7725 20.6672 17.3924 20.5416C16.5922 20.2773 15.367 19.4411 13.5684 17.3438C11.7698 15.2464 11.1302 13.9081 10.991 13.0769C10.9249 12.6821 10.9741 12.4164 11.0525 12.2279C11.1334 12.0333 11.2692 11.8643 11.4582 11.7023C13.1632 10.2402 13.455 7.71194 12.128 5.89987L10.2 3.2672C8.63429 1.12918 5.57983 0.776604 3.56819 2.50169Z" fill="white" stroke="white" stroke-width="2.78715"/>
</svg>
