<svg width="33" height="32" viewBox="0 0 33 32" fill="none" xmlns="http://www.w3.org/2000/svg">
<path d="M6.0256 0C2.68768 0 0 2.60624 0 5.84301V26.157C0 29.3938 2.68768 32 6.0256 32H17.3797V19.49H13.9683V14.986H17.3797V11.138C17.3797 8.11482 19.3953 5.33901 24.0385 5.33901C25.9184 5.33901 27.3086 5.51402 27.3086 5.51402L27.1992 9.72003C27.1992 9.72003 25.7814 9.70704 24.2344 9.70704C22.56 9.70704 22.2915 10.4551 22.2915 11.6971V14.986H27.3323L27.1126 19.49H22.2915V32.0001H26.9744C30.3123 32.0001 33 29.3938 33 26.1571V5.84304C33 2.60627 30.3123 3.2e-05 26.9744 3.2e-05H6.02557L6.0256 0Z" fill="white"/>
</svg>
