<svg width="34" height="34" viewBox="0 0 34 34" fill="none" xmlns="http://www.w3.org/2000/svg">
<path d="M6.66617 0.00854492C3.00379 0.00854492 0.00634766 3.00592 0.00634766 6.66836V27.335C0.00634766 30.9973 3.00372 33.9937 6.66617 33.9937H27.3328C30.9952 33.9937 33.9915 30.9974 33.9915 27.335V6.66836C33.9915 3.00599 30.9952 0.00854492 27.3328 0.00854492H6.66617ZM8.34121 5.61678C10.0972 5.61678 11.1789 6.76958 11.2123 8.28493C11.2123 9.76682 10.0972 10.952 8.30724 10.952H8.2743C6.55169 10.952 5.43829 9.76689 5.43829 8.28493C5.43829 6.76962 6.58538 5.61678 8.34118 5.61678H8.34121ZM23.4739 12.6993C26.8511 12.6993 29.3828 14.9067 29.3828 19.6501V28.5054H24.2504V20.2439C24.2504 18.1678 23.5076 16.7514 21.6502 16.7514C20.2323 16.7514 19.3871 17.7061 19.016 18.6283C18.8805 18.9582 18.8471 19.419 18.8471 19.8806V28.5054H13.7147C13.7147 28.5054 13.7821 14.5106 13.7147 13.0615H18.8482V15.2485C19.5302 14.1962 20.7502 12.6993 23.4739 12.6993V12.6993ZM5.74103 13.0626H10.8734V28.5055H5.74103V13.0626V13.0626Z" fill="white"/>
</svg>
