<svg width="38" height="32" viewBox="0 0 38 32" fill="none" xmlns="http://www.w3.org/2000/svg">
<path fill-rule="evenodd" clip-rule="evenodd" d="M5.99103 2.95042H31.9048C32.3878 2.95042 32.8462 3.05616 33.258 3.24575L21.8351 14.6684C20.2538 16.2497 17.6901 16.2497 16.1089 14.6684L4.67091 3.23075C5.07411 3.05059 5.52087 2.95042 5.99103 2.95042ZM3.39787 4.24818C2.99216 4.7892 2.75181 5.46135 2.75181 6.18964V25.625C2.75181 27.4139 4.20206 28.8642 5.99103 28.8642H31.9048C33.6938 28.8642 35.144 27.4139 35.144 25.625V6.18964C35.144 5.47369 34.9117 4.81199 34.5184 4.27578L22.9803 15.8137C20.7666 18.0274 17.1774 18.0274 14.9637 15.8137L3.39787 4.24818ZM1.1322 6.18964C1.1322 3.50618 3.30757 1.33081 5.99103 1.33081H31.9048C34.5882 1.33081 36.7636 3.50618 36.7636 6.18964V25.625C36.7636 28.3084 34.5882 30.4838 31.9048 30.4838H5.99103C3.30757 30.4838 1.1322 28.3084 1.1322 25.625V6.18964Z" fill="white" stroke="white" stroke-width="1.57053" stroke-linecap="round"/>
</svg>
